<?xml version="1.0" encoding="UTF-8"?><svg id="Layer_1" xmlns="http://www.w3.org/2000/svg" viewBox="0 0 542.71 279.03"><defs><style>.cls-1{font-family:JosefinSans-Bold, 'Josefin Sans';font-size:137px;}</style></defs><path d="M3.6,101.9c.16,0,.32,0,.47,0,19.58,1.67,36.75,7.59,49.26,16.4,6.97,4.9,12.54,10.77,16.1,17.31H495.64c2.64,0,4.93,1.81,5.54,4.38,8.72,36.9-2.95,72.94-31.88,98.91-28.93,25.98-72.31,40.13-120.71,40.13s-97.96-14.17-138.23-39.55c-8.44-5.32-16.32-11.04-23.61-17.11h0c-.11-.09-.22-.18-.32-.27-.53-.44-1.06-.89-1.59-1.34-34.85-29.43-71.25-53.63-115.24-52.13-3.56,6.67-9.2,12.66-16.3,17.65-12.52,8.8-29.7,14.73-49.28,16.39h0c-1.48,.12-2.89-.64-3.59-1.95s-.55-2.91,.37-4.06c9.22-11.55,14.55-27.59,14.57-44.37,0-16.77-5.33-32.81-14.53-44.37H.84c-.87-1.09-1.05-2.58-.47-3.85,.58-1.27,1.82-2.11,3.22-2.17h0Zm421.84,56.54c-5.47,0-9.9,4.43-9.9,9.9s4.43,9.9,9.9,9.9,9.9-4.43,9.9-9.9-4.43-9.9-9.9-9.9h0Zm-76.82,28.95h-103.84c-.14,.89-.22,1.78-.23,2.67,0,11.31,10.96,22.16,30.48,30.16,19.52,8,45.99,12.5,73.59,12.5v-45.33Z"/><text class="cls-1" transform="translate(50.46 118.92)"><tspan x="0" y="0">CETUS</tspan></text></svg>